<svg width="19" height="18" viewBox="0 0 19 18" fill="none" xmlns="http://www.w3.org/2000/svg">
<path d="M6.13285 1.5H12.2658C12.8757 1.5 13.4607 1.73705 13.892 2.15901C14.3233 2.58097 14.5656 3.15326 14.5656 3.75V15C14.5655 15.2908 14.4791 15.5753 14.3167 15.8189C14.1544 16.0625 13.9232 16.2547 13.6512 16.372C13.3793 16.4894 13.0783 16.5269 12.785 16.48C12.4916 16.4331 12.2186 16.3037 11.999 16.1077L9.716 14.07C9.57477 13.9439 9.39048 13.874 9.1993 13.874C9.00812 13.874 8.82384 13.9439 8.6826 14.07L6.39963 16.1077C6.18005 16.3037 5.90697 16.4331 5.61363 16.48C5.32029 16.5269 5.01933 16.4894 4.74738 16.372C4.47543 16.2547 4.24422 16.0625 4.08188 15.8189C3.91954 15.5753 3.83308 15.2908 3.83301 15V3.75C3.83301 3.15326 4.07531 2.58097 4.50662 2.15901C4.93792 1.73705 5.52289 1.5 6.13285 1.5V1.5Z" fill="#3D3D3D"/>
</svg>
