<svg width="18" height="16" viewBox="0 0 18 16" fill="none" xmlns="http://www.w3.org/2000/svg">
<path d="M6.26451 8.90404V11.0194C6.71936 11.1766 7.10274 11.4862 7.34687 11.8932C7.591 12.3003 7.68018 12.7787 7.59863 13.2439C7.51708 13.7091 7.27005 14.1311 6.90122 14.4353C6.53239 14.7395 6.0655 14.9064 5.58307 14.9064C5.10065 14.9064 4.63376 14.7395 4.26493 14.4353C3.89609 14.1311 3.64907 13.7091 3.56752 13.2439C3.48597 12.7787 3.57514 12.3003 3.81928 11.8932C4.06341 11.4862 4.44679 11.1766 4.90164 11.0194V5.45804C4.44679 5.30077 4.06341 4.99124 3.81928 4.58417C3.57514 4.17709 3.48597 3.69869 3.56752 3.23351C3.64907 2.76833 3.89609 2.34634 4.26493 2.04212C4.63376 1.7379 5.10065 1.57104 5.58307 1.57104C6.0655 1.57104 6.53239 1.7379 6.90122 2.04212C7.27005 2.34634 7.51708 2.76833 7.59863 3.23351C7.68018 3.69869 7.591 4.17709 7.34687 4.58417C7.10274 4.99124 6.71936 5.30077 6.26451 5.45804V7.01804C6.47712 6.9447 6.7054 6.9047 6.9439 6.90404L11.0577 6.90004C11.2383 6.89986 11.4115 6.82954 11.5391 6.70454C11.6668 6.57953 11.7385 6.41007 11.7385 6.23337V5.46604C11.2803 5.31298 10.8925 5.00586 10.6441 4.59933C10.3956 4.1928 10.3027 3.71322 10.3818 3.24593C10.4608 2.77864 10.7068 2.35396 11.0759 2.04745C11.445 1.74093 11.9133 1.57247 12.3974 1.57204C12.8778 1.57184 13.3428 1.73713 13.711 2.0389C14.0793 2.34067 14.3271 2.75965 14.4111 3.22234C14.4951 3.68503 14.4098 4.16188 14.1703 4.56923C13.9308 4.97658 13.5524 5.28842 13.1013 5.45004V6.23337C13.1013 6.76346 12.8862 7.27186 12.5033 7.64688C12.1204 8.02189 11.6009 8.23284 11.0591 8.23337L6.94526 8.23737C6.76465 8.23755 6.5915 8.30786 6.46385 8.43287C6.33621 8.55787 6.26451 8.72734 6.26451 8.90404V8.90404Z" fill="#5B6465"/>
</svg>
