<svg width="26" height="24" viewBox="0 0 26 24" fill="none" xmlns="http://www.w3.org/2000/svg">
<path d="M6.63634 7C7.11734 5.275 8.81384 4 10.8332 4H15.1665C16.1273 4.00012 17.0608 4.29482 17.8204 4.83783C18.5801 5.38084 19.1228 6.14138 19.3633 7H19.4998C20.6491 7 21.7513 7.42143 22.564 8.17157C23.3766 8.92172 23.8332 9.93913 23.8332 11V16C23.8332 17.0609 23.3766 18.0783 22.564 18.8284C21.7513 19.5786 20.6491 20 19.4998 20H6.49984C5.35057 20 4.24837 19.5786 3.43571 18.8284C2.62305 18.0783 2.1665 17.0609 2.1665 16V11C2.1665 9.93913 2.62305 8.92172 3.43571 8.17157C4.24837 7.42143 5.35057 7 6.49984 7H6.63634ZM12.9998 17C14.1491 17 15.2513 16.5786 16.064 15.8284C16.8766 15.0783 17.3332 14.0609 17.3332 13C17.3332 11.9391 16.8766 10.9217 16.064 10.1716C15.2513 9.42143 14.1491 9 12.9998 9C11.8506 9 10.7484 9.42143 9.93571 10.1716C9.12305 10.9217 8.6665 11.9391 8.6665 13C8.6665 14.0609 9.12305 15.0783 9.93571 15.8284C10.7484 16.5786 11.8506 17 12.9998 17V17ZM19.4998 12C19.7872 12 20.0627 11.8946 20.2659 11.7071C20.469 11.5196 20.5832 11.2652 20.5832 11C20.5832 10.7348 20.469 10.4804 20.2659 10.2929C20.0627 10.1054 19.7872 10 19.4998 10C19.2125 10 18.937 10.1054 18.7338 10.2929C18.5306 10.4804 18.4165 10.7348 18.4165 11C18.4165 11.2652 18.5306 11.5196 18.7338 11.7071C18.937 11.8946 19.2125 12 19.4998 12V12ZM12.9998 15C12.4252 15 11.8741 14.7893 11.4678 14.4142C11.0614 14.0391 10.8332 13.5304 10.8332 13C10.8332 12.4696 11.0614 11.9609 11.4678 11.5858C11.8741 11.2107 12.4252 11 12.9998 11C13.5745 11 14.1256 11.2107 14.5319 11.5858C14.9382 11.9609 15.1665 12.4696 15.1665 13C15.1665 13.5304 14.9382 14.0391 14.5319 14.4142C14.1256 14.7893 13.5745 15 12.9998 15Z" fill="#484848"/>
</svg>
