<svg width="18" height="18" viewBox="0 0 18 18" fill="none" xmlns="http://www.w3.org/2000/svg">
<path d="M7.623 9.83025L8.98575 10.617L10.3883 9.807V8.2575L8.97 7.44L7.623 8.2815V9.83025ZM6.123 8.964V3.7335C4.72973 4.49619 3.6947 5.779 3.24375 7.302L6.12375 8.964H6.123ZM3.00075 8.8935L3 9C2.99778 10.5346 3.58588 12.0113 4.6425 13.1242L7.485 11.4825L3.00075 8.8935ZM7.623 6.513L11.979 3.7905C11.0723 3.2709 10.0451 2.99832 9 3C8.526 3 8.0655 3.05475 7.623 3.159V6.513ZM13.2502 4.7655L10.4107 6.53925L14.997 9.1875C15.0237 8.37004 14.8825 7.55579 14.582 6.79508C14.2816 6.03437 13.8283 5.34335 13.2502 4.76475V4.7655ZM11.8883 9.1245V14.2605C13.2537 13.5092 14.2744 12.2573 14.7352 10.7685L11.8883 9.1245ZM5.8935 14.1345C6.83005 14.7024 7.90473 15.0018 9 15C9.47775 15 9.94275 14.9445 10.3875 14.8387V11.5387L5.8935 14.1337V14.1345ZM9 16.5C4.85775 16.5 1.5 13.1423 1.5 9C1.5 4.85775 4.85775 1.5 9 1.5C13.1423 1.5 16.5 4.85775 16.5 9C16.5 13.1423 13.1423 16.5 9 16.5Z" fill="#707070"/>
</svg>
